<svg xmlns="http://www.w3.org/2000/svg" viewBox="0 0 1200 720">
  <rect width="1200" height="720" fill="#111926"/>
  <rect x="36" y="34" width="1128" height="652" rx="28" fill="#152133" stroke="#27344c"/>
  <text x="74" y="88" fill="#ebf1f7" font-size="34" font-family="Arial">Atlas // Capital Flow Map</text>
  <text x="74" y="120" fill="#8a9ab0" font-size="16" font-family="Arial">origin wallets, sector clusters, propagation lag, and crowding risk</text>

  <rect x="74" y="150" width="742" height="458" rx="24" fill="#122031" stroke="#2a3b56"/>
  <text x="102" y="184" fill="#dfe7f1" font-size="18" font-family="Arial">Active Flow Graph</text>
  <text x="102" y="208" fill="#7f92ab" font-size="13" font-family="Arial">wallet origins route into sectors only if lag stays tight and second-wave crowding stays contained</text>

  <rect x="114" y="248" width="132" height="74" rx="18" fill="#2c4f7c" stroke="#5882bc"/>
  <text x="136" y="278" fill="#f1f6ff" font-size="18" font-family="Arial">Multicoin</text>
  <text x="136" y="300" fill="#c5d7f0" font-size="12" font-family="Arial">origin wallet</text>

  <rect x="334" y="212" width="138" height="78" rx="18" fill="#476a51" stroke="#7cab7a"/>
  <text x="364" y="244" fill="#f1f6ff" font-size="18" font-family="Arial">Infra</text>
  <text x="364" y="266" fill="#d6e7d5" font-size="12" font-family="Arial">lead sector</text>

  <rect x="552" y="290" width="148" height="84" rx="18" fill="#83623d" stroke="#b18a58"/>
  <text x="586" y="324" fill="#fff4e7" font-size="20" font-family="Arial">Meme</text>
  <text x="586" y="348" fill="#f0dbbe" font-size="12" font-family="Arial">rotation hub</text>

  <rect x="708" y="198" width="138" height="76" rx="18" fill="#365e62" stroke="#6aa4a1"/>
  <text x="734" y="230" fill="#eefbfb" font-size="18" font-family="Arial">Staking</text>
  <text x="734" y="252" fill="#c5dfdd" font-size="12" font-family="Arial">sector watch</text>

  <rect x="714" y="378" width="152" height="84" rx="18" fill="#894a49" stroke="#c27773"/>
  <text x="744" y="412" fill="#fff0ee" font-size="18" font-family="Arial">Followers</text>
  <text x="744" y="436" fill="#e8bfba" font-size="12" font-family="Arial">crowding risk</text>

  <rect x="566" y="470" width="146" height="80" rx="18" fill="#4c5967" stroke="#7f8d9b"/>
  <text x="608" y="502" fill="#edf4ff" font-size="18" font-family="Arial">Stable</text>
  <text x="608" y="524" fill="#c7d0da" font-size="12" font-family="Arial">defensive bid</text>

  <rect x="158" y="448" width="126" height="76" rx="18" fill="#425271" stroke="#7182a6"/>
  <text x="198" y="480" fill="#edf4ff" font-size="18" font-family="Arial">Jito</text>
  <text x="186" y="502" fill="#c6d3e8" font-size="12" font-family="Arial">yield origin</text>

  <path d="M246 285 L334 251" stroke="#84b7ff" stroke-width="6" stroke-linecap="round"/>
  <rect x="258" y="220" width="68" height="24" rx="12" fill="#18314a" stroke="#31577f"/>
  <text x="275" y="236" fill="#98c1ff" font-size="12" font-family="Arial">lag +18s</text>

  <path d="M472 258 L552 318" stroke="#86d5a5" stroke-width="6" stroke-linecap="round"/>
  <rect x="474" y="276" width="86" height="24" rx="12" fill="#143227" stroke="#295e46"/>
  <text x="491" y="292" fill="#8fe0af" font-size="12" font-family="Arial">prop 0.74</text>

  <path d="M700 322 L756 274" stroke="#f1c36a" stroke-width="6" stroke-linecap="round"/>
  <rect x="690" y="248" width="106" height="24" rx="12" fill="#3b2b12" stroke="#72501f"/>
  <text x="709" y="264" fill="#f3cd7c" font-size="12" font-family="Arial">sector handoff</text>

  <path d="M700 354 L742 378" stroke="#d98b7c" stroke-width="6" stroke-linecap="round"/>
  <rect x="682" y="356" width="118" height="24" rx="12" fill="#3f1f1d" stroke="#7a4641"/>
  <text x="702" y="372" fill="#e19b8f" font-size="12" font-family="Arial">crowding 0.68</text>

  <path d="M284 486 L566 510" stroke="#9ac7c4" stroke-width="6" stroke-linecap="round"/>
  <rect x="346" y="468" width="106" height="24" rx="12" fill="#183436" stroke="#3b6869"/>
  <text x="365" y="484" fill="#a9dcda" font-size="12" font-family="Arial">yield rotation</text>

  <rect x="846" y="150" width="280" height="458" rx="24" fill="#101a28" stroke="#2a3b56"/>
  <text x="874" y="186" fill="#edf4ff" font-size="20" font-family="Arial">Flow Details</text>
  <text x="874" y="214" fill="#8fa1b5" font-size="13" font-family="Arial">live ranking combines origin quality, handoff speed, and crowding decay</text>

  <rect x="874" y="246" width="224" height="86" rx="16" fill="#162536" stroke="#29415d"/>
  <text x="894" y="274" fill="#edf4ff" font-size="16" font-family="Arial">Lead Route</text>
  <text x="894" y="298" fill="#84b7ff" font-size="13" font-family="Arial">Multicoin -&gt; Infra -&gt; Meme</text>
  <text x="894" y="320" fill="#8fa1b5" font-size="12" font-family="Arial">score 0.74 | lag 18s | crowding low</text>

  <rect x="874" y="350" width="224" height="88" rx="16" fill="#162536" stroke="#29415d"/>
  <text x="894" y="378" fill="#edf4ff" font-size="16" font-family="Arial">Crowding Watch</text>
  <text x="894" y="402" fill="#d98b7c" font-size="13" font-family="Arial">Follower cluster spread is widening</text>
  <text x="894" y="424" fill="#8fa1b5" font-size="12" font-family="Arial">copy saturation 0.68, still below hard block</text>

  <rect x="874" y="456" width="224" height="118" rx="16" fill="#162536" stroke="#29415d"/>
  <text x="894" y="484" fill="#edf4ff" font-size="16" font-family="Arial">Rotation Summary</text>
  <text x="894" y="508" fill="#9ac7c4" font-size="13" font-family="Arial">Jito yield capital is drifting into stable</text>
  <text x="894" y="530" fill="#f1c36a" font-size="13" font-family="Arial">Staking stays secondary until meme cools</text>
  <text x="894" y="552" fill="#8fa1b5" font-size="12" font-family="Arial">late nodes lose score when lag expands past 30s</text>
</svg>
