<svg xmlns="http://www.w3.org/2000/svg" viewBox="0 0 1200 720">
  <rect width="1200" height="720" fill="#111926"/>
  <rect x="36" y="34" width="1128" height="652" rx="28" fill="#152133" stroke="#27344c"/>
  <text x="74" y="88" fill="#ebf1f7" font-size="34" font-family="Arial">Atlas // Capital Flow Map</text>
  <text x="74" y="120" fill="#8a9ab0" font-size="16" font-family="Arial">origin wallets, sector clusters, propagation lag, and crowding risk</text>

  <circle cx="220" cy="210" r="54" fill="#3c5e8f"/>
  <text x="184" y="216" fill="#edf4ff" font-size="18" font-family="Arial">Multicoin</text>
  <circle cx="432" cy="166" r="42" fill="#587d5b"/>
  <text x="402" y="171" fill="#edf4ff" font-size="16" font-family="Arial">Infra</text>
  <circle cx="640" cy="270" r="50" fill="#8c6b42"/>
  <text x="606" y="276" fill="#edf4ff" font-size="16" font-family="Arial">Meme</text>
  <circle cx="904" cy="188" r="46" fill="#4c7d7a"/>
  <text x="868" y="194" fill="#edf4ff" font-size="16" font-family="Arial">Staking</text>
  <circle cx="956" cy="430" r="44" fill="#9b5250"/>
  <text x="922" y="436" fill="#edf4ff" font-size="16" font-family="Arial">Followers</text>
  <circle cx="646" cy="500" r="48" fill="#55616b"/>
  <text x="614" y="506" fill="#edf4ff" font-size="16" font-family="Arial">Stable</text>
  <circle cx="320" cy="474" r="46" fill="#4b5c78"/>
  <text x="286" y="480" fill="#edf4ff" font-size="16" font-family="Arial">Jito</text>

  <line x1="270" y1="208" x2="390" y2="174" stroke="#84b7ff" stroke-width="6"/>
  <text x="308" y="172" fill="#84b7ff" font-size="14" font-family="Arial">+18s</text>
  <line x1="466" y1="182" x2="596" y2="248" stroke="#86d5a5" stroke-width="6"/>
  <text x="516" y="200" fill="#86d5a5" font-size="14" font-family="Arial">prop 0.74</text>
  <line x1="684" y1="266" x2="858" y2="200" stroke="#f1c36a" stroke-width="6"/>
  <text x="734" y="226" fill="#f1c36a" font-size="14" font-family="Arial">sector rotation</text>
  <line x1="676" y1="304" x2="930" y2="404" stroke="#d47d6e" stroke-width="6"/>
  <text x="786" y="366" fill="#d47d6e" font-size="14" font-family="Arial">copy saturation rising</text>
  <line x1="348" y1="450" x2="598" y2="504" stroke="#9ac7c4" stroke-width="6"/>
  <text x="454" y="466" fill="#9ac7c4" font-size="14" font-family="Arial">yield rotation</text>

  <rect x="82" y="568" width="1036" height="84" rx="18" fill="#0f1826" stroke="#2d4159"/>
  <text x="108" y="606" fill="#edf4ff" font-size="16" font-family="Arial">Legend: blue origin wallet | green infra | amber meme | teal staking | red follower cluster</text>
  <text x="108" y="634" fill="#8a9ab0" font-size="15" font-family="Arial">Late follower nodes lose score when lag expands and second-wave crowding crosses the saturation threshold.</text>
</svg>
